<?xml version="1.0" encoding="iso-8859-1"?>
<!-- Generator: Adobe Illustrator 19.0.0, SVG Export Plug-In . SVG Version: 6.00 Build 0)  -->
<svg version="1.1" id="Capa_1" xmlns="http://www.w3.org/2000/svg" xmlns:xlink="http://www.w3.org/1999/xlink" x="0px" y="0px"
	 viewBox="0 0 489.4 489.4" style="enable-background:new 0 0 489.4 489.4;" xml:space="preserve" fill="white">
<g>
	<path d="M452.154,307.02l-57.442-198.941l-202.664,58.524l57.432,198.941L452.154,307.02z M380.755,133.361l46.118,159.712
		l-163.436,47.19L217.329,180.55L380.755,133.361z"/>
	<path d="M478.215,342.087c-1.565-5.414-7.208-8.519-12.641-6.978L258.637,394.86c-9.463-13.895-24.561-23.63-42.006-25.949
		L121.934,40.966C113.271,10.949,81.828-6.434,51.75,2.225C21.723,10.904,4.346,42.387,13.01,72.414
		c1.575,5.418,7.228,8.518,12.64,6.979c5.414-1.566,8.544-7.223,6.979-12.641c-5.542-19.211,5.573-39.359,24.784-44.906
		c19.25-5.543,39.358,5.577,44.901,24.783l93.311,323.14c-27.193,5.935-47.559,30.14-47.559,59.113
		c0,33.424,27.095,60.519,60.519,60.519s60.519-27.095,60.519-60.519c0-5.261-0.674-10.364-1.935-15.23l204.067-58.923
		C476.65,353.162,479.78,347.504,478.215,342.087z M208.585,469.581c-22.478,0-40.7-18.222-40.7-40.7
		c0-22.478,18.222-40.7,40.7-40.7c22.478,0,40.7,18.222,40.7,40.7C249.285,451.359,231.063,469.581,208.585,469.581z"/>
</g>
<g>
</g>
<g>
</g>
<g>
</g>
<g>
</g>
<g>
</g>
<g>
</g>
<g>
</g>
<g>
</g>
<g>
</g>
<g>
</g>
<g>
</g>
<g>
</g>
<g>
</g>
<g>
</g>
<g>
</g>
</svg>
